M48
;Layer_Color=9474304
;FILE_FORMAT=2:4
METRIC,LZ
;TYPE=PLATED
T1F00S00C0.2540
T2F00S00C0.7620
T3F00S00C1.5240
%
T01
X0889Y127
X1143
X14605
X25781Y15494
X3302Y1905
X36195
X49911Y26289
Y27178
Y28067
Y28956
Y29845
Y30734
Y31623
Y32512
Y35814
Y36703
Y37592
Y38481
Y3937
Y40259
Y41148
Y42037
T02
X2794Y0254
X3048
X3302
X3556
X381
X4064
X4318
X4572
X508
X5334
X5588
X5842
X6096
X635
Y508
X6096
X5842
X5588
X5334
X508
X4826
X4572
X4064
X381
X3556
X3302
X3048
X2794
X254
X2286
X2032
X1778
T03
X0254Y254
Y3048
M30
